<?xml version="1.0" encoding="utf-8"?>
<!-- Generator: Adobe Illustrator 24.3.0, SVG Export Plug-In . SVG Version: 6.00 Build 0)  -->
<svg version="1.1" id="Layer_2" xmlns="http://www.w3.org/2000/svg" xmlns:xlink="http://www.w3.org/1999/xlink" x="0px" y="0px"
	 viewBox="0 0 999.5 1000" style="enable-background:new 0 0 999.5 1000;" xml:space="preserve">
<style type="text/css">
	.st0{fill:#FFFFFF;}
</style>
<path class="st0" d="M-269.08,535.18c1.22,6.37,6.18,11.33,12.55,12.55v-12.55H-269.08z"/>
<path class="st0" d="M-269.08,529.18h12.55v-12.55C-262.9,517.85-267.86,522.81-269.08,529.18z"/>
<path class="st0" d="M-237.98,535.18h-12.55v12.55C-244.15,546.51-239.19,541.55-237.98,535.18z"/>
<path class="st0" d="M-250.53,516.63v12.55h12.55C-239.19,522.81-244.15,517.85-250.53,516.63z"/>
<path class="st0" d="M-295.44,472.68v115h83.83v-94.66l-20.34-20.34H-295.44z M-230.78,479.51l12.34,12.34h-12.34V479.51z
	 M-222.18,529.18v6h-9.71c-1.33,9.66-8.97,17.3-18.63,18.63v9.71h-6v-9.71c-9.66-1.33-17.3-8.97-18.63-18.63h-9.71v-6h9.71
	c1.33-9.66,8.97-17.3,18.63-18.63v-9.71h6v9.71c9.66,1.33,17.3,8.97,18.63,18.63H-222.18z"/>
</svg>
